<svg id="Layer_1" data-name="Layer 1" xmlns="http://www.w3.org/2000/svg" xmlns:xlink="http://www.w3.org/1999/xlink" viewBox="0 0 216 68.15"><defs><clipPath id="clip-path" transform="translate(5 5)"><path d="M10.6.2C6.39,2,1.75,6.92.29,13.15-1.57,21,6.15,24.38,6.78,23.28,7.52,22,5.4,21.56,5,17.47c-.57-5.29,1.91-11.2,5-13.79.57-.48.54.19.54,1.43,0,2.22-.12,22.13-.12,26.28,0,5.62-.23,7.4-.65,9.15s-1.11,3-.59,3.44,3.05-.71,4.47-2.7A14.6,14.6,0,0,0,16.05,33c.13-3.75.13-9.68.13-13.07,0-3.11.06-12.2-.05-17.67,0-1.34-3.76-2.74-5.53-2M205.07,29.73c-.61,0-.89.63-1.12,1.69-.8,3.67-1.64,4.5-2.73,4.5s-2.3-1.82-2.58-5.46a121.47,121.47,0,0,1,.1-13.37c.06-1.08-.24-2.14-3.14-3.19-1.25-.45-3.07-1.12-4,1.06a53.55,53.55,0,0,0-3.78,13c0,.1-.14.12-.16-.12a99.14,99.14,0,0,1-.53-10.51,3.15,3.15,0,0,0-1.57-3c-.85-.53-3.43-1.48-4.36-.35-.8.91-1.73,3.38-2.7,6.32-.79,2.38-1.34,4-1.34,4s0-6.43,0-8.87a1.25,1.25,0,0,0-.82-1.28,17.08,17.08,0,0,0-3.27-.66c-.89,0-1.11.49-1.11,1.21,0,.1-.14,8.46-.14,14.31v.83c-.49,2.69-2.08,6.34-3.81,6.34s-2.55-1.53-2.55-8.5c0-4.07.12-5.84.18-8.78,0-1.7.1-3,.1-3.29,0-.91-1.59-1.37-2.32-1.54a6.83,6.83,0,0,0-1.88-.2,1.16,1.16,0,0,0-1.2,1.13v1a6.72,6.72,0,0,0-3.35-2.7c-2.62-.78-5.36-.09-7.42,2.79a16.89,16.89,0,0,0-3,8.58,25.42,25.42,0,0,0,.31,7.81c-.61,2.63-1.74,3.71-3,3.71-1.8,0-3.11-2.93-3-8a45.36,45.36,0,0,1,1.51-9.06,2.92,2.92,0,0,0-.58-2.92c-.58-.66-1.83-1-3.62-.59-1.27.3-3.09.62-4.76.87a9.41,9.41,0,0,0,.18-1.11c.44-3.69-3.59-3.39-4.88-2.21a4.56,4.56,0,0,0-1.49,3,3.58,3.58,0,0,0,1.63,3.49,35.91,35.91,0,0,1-3.81,9.42,43.21,43.21,0,0,1-2.38,3.72c0-.43,0-.86,0-1.29,0-6.1.07-10.9.1-12.63s.11-3,.1-3.26c0-.66-.4-.91-1.21-1.23a8.57,8.57,0,0,0-2.43-.54c-1.11-.09-1.78.5-1.76,1.19V16a6.7,6.7,0,0,0-3.34-2.7c-2.63-.78-5.36-.09-7.43,2.79a18.38,18.38,0,0,0-3,8.56,26.09,26.09,0,0,0,.16,7.34c-.42,2.05-1.62,4.2-3,4.2-1.73,0-2.72-1.53-2.72-8.5,0-4.07.13-5.84.19-8.78,0-1.7.1-3,.1-3.29,0-.91-1.59-1.37-2.32-1.54a6.91,6.91,0,0,0-1.94-.2,1.24,1.24,0,0,0-1.14,1.09v1a6.76,6.76,0,0,0-3.35-2.7c-2.62-.78-5.34-.08-7.42,2.79-1.36,1.86-2.46,3.93-3,8.52a27.27,27.27,0,0,0-.23,3.72c-.54,3.29-2.93,7.08-4.89,7.08-1.14,0-2.23-2.2-2.23-6.91,0-6.26.39-15.18.46-16l2.94-.05c1.24,0,2.35,0,4-.07.83,0,1.62-3,.77-3.34a28.52,28.52,0,0,0-4.19-.33c-.9,0-3.43-.21-3.43-.21s.23-5.92.29-6.55-.64-.79-1-.95A13.46,13.46,0,0,0,69,.12c-1.39-.29-2,0-2.14,1.15-.18,1.77-.28,6.94-.28,6.94-1,0-4.49-.2-5.5-.2s-2,4-.66,4.09c1.5.06,4.12.11,5.85.16,0,0-.07,9.07-.07,11.87V25a13.67,13.67,0,0,1-4.32,7.64c.72-3.28-.75-5.74-3.41-7.83-1-.77-2.92-2.22-5.08-3.81a13.18,13.18,0,0,0,2.37-3.7c.78-1.75.82-3.76-1.12-4.2A5.78,5.78,0,0,0,48,17.18,4.73,4.73,0,0,0,48.91,22l.28.33c-.72,1.39-1.71,3.25-2.55,4.69-2.33,4-4.09,7.18-5.42,7.18-1.06,0-1-3.22-1-6.23,0-2.6.19-6.5.34-10.55a2.94,2.94,0,0,0-1.75-2.79,7.79,7.79,0,0,0-3-1.24c-1.26,0-4.92.17-8.37,10.11-.43,1.25-1.29,3.53-1.29,3.53l.07-11.95a.8.8,0,0,0-.49-.73,8.43,8.43,0,0,0-3.52-1c-.65,0-1,.3-1,.91L21.08,33a27.4,27.4,0,0,0,.18,3.8,3.9,3.9,0,0,0,.65,1.67,1.83,1.83,0,0,0,1.14.72c.5.11,3.24.46,3.38-.59A38.32,38.32,0,0,1,28.05,31c2.24-7.84,5.15-11.66,6.53-13,.23-.23.51-.25.5.14-.06,1.72-.27,6-.41,9.66-.37,9.76,1.42,11.57,4,11.57,2,0,4.7-1.93,7.65-6.81,1.83-3.05,3.62-6,4.9-8.18.89.82,1.9,1.71,2.9,2.66,2.33,2.2,3.09,4.29,2.59,6.27-.39,1.51-1.85,3.08-4.45,1.56-.76-.45-1.09-.79-1.85-1.29A1.31,1.31,0,0,0,49,33.5a5,5,0,0,0-1.84,2.81c-.31,1.12.81,1.71,2,2.22a15.5,15.5,0,0,0,4.55.9c5.37.18,9.67-2.58,12.66-9.7.54,6.15,2.82,9.63,6.78,9.63,2.65,0,5.31-3.41,6.47-6.77A12,12,0,0,0,81,36.16c3,4.81,9,3.78,11.95-.31a8.28,8.28,0,0,0,1.07-1.72,5.59,5.59,0,0,0,5.34,5.21c2,0,4.08-.94,5.53-4.19a9,9,0,0,0,.56,1c3.05,4.81,9,3.78,12-.31l.37-.53.09,2.54-2.74,2.5c-4.6,4.19-8.09,7.37-8.34,11.07-.33,4.72,3.52,6.47,6.43,6.7a8.23,8.23,0,0,0,7.36-3.83c1.43-2.09,2.36-6.6,2.29-11,0-1.78-.07-4-.1-6.48a51.34,51.34,0,0,0,5.1-7,53,53,0,0,0,4.77-10.18s1.7,0,3.51-.1c.58,0,.75.08.64.5s-2.29,8.8-.32,14.32c1.35,3.78,4.39,5,6.2,5,2.11,0,4.13-1.59,5.21-3.94.13.26.26.51.41.75,3.06,4.81,9,3.77,12-.31a12.26,12.26,0,0,0,1.06-1.72,5.81,5.81,0,0,0,5.55,5.23c1.87,0,3.64-.76,5.07-4.14a16,16,0,0,0,.3,3.09,2.1,2.1,0,0,0,1,.67,7.73,7.73,0,0,0,4.09.2c.44-.09.79-.44.84-1.36.12-2.41.05-6.47.78-9.48a27.52,27.52,0,0,1,2.93-8c.3-.55.65-.64.66-.06,0,1.16.09,4.58.56,9.17.35,3.39.82,5.38,1.18,6a3.34,3.34,0,0,0,3.34,1.89c.65,0,2-.18,1.91-1.33a36.32,36.32,0,0,1,1.26-9,44,44,0,0,1,2.59-7.26c.18-.4.26-.09.26,0-.1,2.24-.33,9.57.59,13.57,1.24,5.43,4.84,6,6.09,6,2.67,0,4.86-2,5.6-7.35.17-1.28-.09-2.28-.88-2.28M93,26.44a17.19,17.19,0,0,1-1.59,6.89c-1.6,3.1-4.78,4.08-6.18-.4-1-3.23-.66-7.62-.24-10,.62-3.53,2.18-6,4.62-5.8s3.71,3.45,3.39,9.31m24.45,0a19.25,19.25,0,0,1-1.59,6.85c-1.56,3.12-4.83,4.1-6.18-.4a22.29,22.29,0,0,1-.25-9.54c.59-3.24,2-6.26,4.62-6.26s3.76,2.75,3.4,9.35m.64,18.17c0,4.85-.8,9.11-2.45,10.35-2.34,1.75-5.48.43-4.83-3.11.58-3.14,3.3-6.34,7.29-10.25,0,0,0,.89,0,3m42.2-18.14a17.32,17.32,0,0,1-1.59,6.82c-1.57,3.12-4.81,4.09-6.19-.4a25.36,25.36,0,0,1-.24-9.93c.55-3.48,2.08-6.1,4.62-5.87s3.67,3.45,3.4,9.38" style="fill:none;clip-rule:evenodd"/></clipPath></defs><title>instagram-loco</title><g style="clip-path:url(#clip-path)"><rect width="216" height="68.15" style="fill:#231f20"/></g></svg>